<svg width="144" height="68" xmlns="http://www.w3.org/2000/svg" xmlns:xlink="http://www.w3.org/1999/xlink">
  <defs>
    <path id="a" d="M27.83 66.3h27.82V.25H0V66.3z"/>
  </defs>
  <g fill="none" fill-rule="evenodd">
    <g fill-rule="nonzero">
      <path d="M36 37c0 9.94-8.06 18-18 18S0 46.94 0 37s8.06-18 18-18 18 8.06 18 18" fill="#2E4369"/>
      <path d="M7.2 43.5a2.456 2.456 0 1 1-2.48-2.45c1.33 0 2.45 1.1 2.45 2.45" fill="#DBF4FE"/>
      <path d="M32.6 42.04c0 7.66-6.22 13.87-13.88 13.87-7.66 0-13.87-6.2-13.87-13.84 0-7.66 6.2-13.87 13.87-13.87 7.66 0 13.87 6.2 13.87 13.86" fill="#DBF4FE"/>
      <path d="M18.9 50.8c-6.73-1.76-12.56-5.85-14.2-11.85v4.18C4.17 55.48 13.32 61.1 21.15 61.1s13.3-4.86 11.92-14.08c-.16-1.05-.35-2.18-.6-3.2-1.47 6.2-7.07 8.66-13.57 6.98" fill="#2E4369"/>
      <path d="M19.35 52.1c0 3.3 2.68 5.97 5.98 5.97 3.3 0 5.97-2.67 5.97-5.97s-2.67-5.98-5.97-5.98-5.98 2.68-5.98 5.98" fill="#2E4369"/>
      <path d="M27.72 50.7c0 1.2-.95 2.14-2.13 2.14-1.2 0-2.17-.95-2.17-2.13h4.27l.03-.01zM23.48 42.73c0 2.2-1.78 4-4 4-2.2 0-3.98-1.8-3.98-4s1.78-4 4-4c2.2 0 3.98 1.8 3.98 4M34.58 42.73c0 2.2-1.8 4-4 4s-4-1.8-4-4 1.8-4 4-4 4 1.8 4 4" fill="#FFF"/>
      <path d="M30.58 46.28c-1.95 0-3.55-1.6-3.55-3.55 0-1.96 1.6-3.55 3.55-3.55 1.96 0 3.55 1.6 3.55 3.55 0 1.96-1.6 3.55-3.55 3.55m-11.1 0c-1.95 0-3.54-1.6-3.54-3.55 0-1.96 1.6-3.55 3.55-3.55 1.93 0 3.52 1.6 3.52 3.55 0 1.96-1.6 3.55-3.55 3.55m11.08-7.98c-2.36 0-4.28 1.85-4.42 4.17H23.9a4.41 4.41 0 0 0-4.4-4.17 4.43 4.43 0 0 0-4.43 4.17h-8.9v.9h8.93c.3 2.14 2.16 3.8 4.4 3.8 2.22 0 4.07-1.66 4.38-3.8h2.32a4.43 4.43 0 0 0 4.38 3.8c2.45 0 4.44-2 4.44-4.44 0-2.44-2-4.43-4.44-4.43M34.48 37.22H2.96c0-8.7 7.06-15.76 15.76-15.76s15.76 7.06 15.76 15.76" fill="#2E4369"/>
    </g>
    <g transform="translate(43 .454)">
      <mask id="b" fill="#fff">
        <use xlink:href="#a"/>
      </mask>
      <path d="M0 66.3V27.57C0 12.53 12.52.24 27.83.24c15.3 0 27.82 12.3 27.82 27.32V66.3H0z" fill="#2E4369" fill-rule="nonzero" mask="url(#b)"/>
    </g>
    <path d="M96.58 27.05c0 12.4-10.05 22.45-22.45 22.45-12.4 0-22.45-10.06-22.45-22.45 0-12.4 10.06-22.45 22.45-22.45 12.4 0 22.45 10.05 22.45 22.45" fill="#DBF4FE" fill-rule="nonzero"/>
    <path d="M83.46 39.83c0 1.9-1.55 3.45-3.46 3.45-1.9 0-3.45-1.55-3.45-3.45h6.91zM89.67 30.5c0 .95-.77 1.73-1.72 1.73a1.73 1.73 0 0 1 0-3.46c.95 0 1.72.78 1.72 1.73M73.8 30.5c0 .95-.8 1.73-1.74 1.73-.95 0-1.73-.78-1.73-1.73s.78-1.73 1.73-1.73 1.73.78 1.73 1.73" fill="#393F54" fill-rule="nonzero"/>
    <path d="M74.13 2.87c-12.4 0-22.45 10.05-22.45 22.45H70.7l2.4-4.14 2.4 4.14h21.08c0-12.4-10.05-22.45-22.45-22.45" fill="#2E4369" fill-rule="nonzero"/>
    <path d="M56.87 32.02c0 2.2-1.78 3.97-3.97 3.97-2.2 0-3.97-1.8-3.97-4s1.78-3.97 3.97-3.97c2.2 0 3.97 1.78 3.97 3.97" fill="#DBF4FE" fill-rule="nonzero"/>
    <g fill-rule="nonzero">
      <path d="M110.48 43.25c0 1.8-1.45 3.24-3.24 3.24-1.8 0-3.24-1.48-3.24-3.27 0-1.8 1.45-3.24 3.24-3.24 1.8 0 3.24 1.45 3.24 3.24" fill="#DBF4FE"/>
      <path d="M144 41.3c0 10.13-8.2 18.33-18.3 18.33-10.13 0-18.33-8.2-18.33-18.32 0-10.1 8.2-18.3 18.32-18.3 10.1 0 18.3 8.2 18.3 18.3" fill="#DBF4FE"/>
      <path d="M128.37 52.3c-9.77 0-19.34-7.74-19.84-17.37-1 2.3-1.3 4.7-1.16 8.23.4 10.07 8.18 18.25 18.26 18.25 9.9 0 17.96-7.9 18.23-17.72-3.22 5.18-8.95 8.64-15.5 8.64" fill="#BCD1D8"/>
      <path d="M126.47 52.74c0 3.3 2.68 5.97 5.97 5.97 3.3 0 5.97-2.64 5.97-5.94 0-3.3-2.64-5.97-5.94-5.97-3.3 0-5.97 2.66-5.97 5.96" fill="#BCD1D8"/>
      <path d="M135.1 51.67c0 1.55-1.25 2.8-2.8 2.8-1.56.02-2.82-1.25-2.82-2.8h5.63-.01zM139.5 42.2c0 .78-.63 1.42-1.4 1.43-.8 0-1.43-.62-1.43-1.4 0-.78.62-1.42 1.4-1.42.78 0 1.4.65 1.42 1.4M127.1 42.3c0 .78-.63 1.4-1.4 1.42a1.41 1.41 0 1 1-.03-2.82c.78 0 1.4.62 1.42 1.4" fill="#1E2E44"/>
    </g>
  </g>
</svg>