<?xml version="1.0" encoding="UTF-8"?>
<svg width="135px" height="62px" viewBox="0 0 135 62" version="1.1" xmlns="http://www.w3.org/2000/svg" xmlns:xlink="http://www.w3.org/1999/xlink">
    <!-- Generator: Sketch 49.3 (51167) - http://www.bohemiancoding.com/sketch -->
    <title>mitsui</title>
    <desc>Created with Sketch.</desc>
    <defs></defs>
    <g id="Page-1" stroke="none" stroke-width="1" fill="none" fill-rule="evenodd">
        <g id="mitsui" fill="#FFFFFF" fill-rule="nonzero">
            <path d="M44.52,25.35 L42.23,23.06 L38.78,26.5 L25,12.73 L28.44,9.29 L26.17,7 L22.73,10.44 L19.29,7 L17,9.29 L20.44,12.73 L6.67,26.5 L3.23,23.06 L0.94,25.35 L4.38,28.79 L0.94,32.23 L3.23,34.52 L6.67,31.08 L20.43,44.85 L17,48.29 L19.29,50.58 L22.73,47.14 L26.17,50.58 L28.46,48.29 L25,44.85 L38.78,31.09 L42.22,34.53 L44.51,32.24 L41.07,28.8 L44.52,25.35 Z M16.26,36.09 L29.19,36.09 L22.73,42.55 L16.26,36.09 Z M29.19,36.09 L29.19,32.85 L16.26,32.85 L16.26,36.09 L9,28.79 L22.73,15 L36.49,28.79 L29.19,36.09 Z" id="Shape"></path>
            <rect id="Rectangle-path" x="16.26" y="21.49" width="12.93" height="3.24"></rect>
            <rect id="Rectangle-path" x="16.26" y="27.17" width="12.93" height="3.24"></rect>
            <path d="M19.9,59.89 C19.9,61.0194223 20.8155777,61.935 21.945,61.935 C23.0744223,61.935 23.99,61.0194223 23.99,59.89 L23.99,57.2 L23,57.2 L23,59.89 C23,60.4422847 22.5522847,60.89 22,60.89 C21.4477153,60.89 21,60.4422847 21,59.89 L21,57.2 L20,57.2 L19.9,59.89 Z" id="Shape"></path>
            <polygon id="Shape" points="4.38 57.2 3.24 59.25 2.11 57.2 0.94 57.2 0.94 61.82 1.96 61.82 1.96 59.05 3.24 61.37 4.53 59.05 4.53 61.82 5.55 61.82 5.55 57.2"></polygon>
            <path d="M37.48,58.1 C37.8187544,58.1023603 38.1453356,58.2266031 38.4,58.45 L39.13,57.72 C38.1591732,56.8206772 36.6484222,56.8591753 35.72466,57.8067773 C34.8008978,58.7543793 34.8008978,60.2656207 35.72466,61.2132227 C36.6484222,62.1608247 38.1591732,62.1993228 39.13,61.3 L38.4,60.57 C37.9259525,60.9768201 37.2407321,61.0232316 36.7161562,60.6840506 C36.1915804,60.3448696 35.95271,59.7009582 36.129162,59.1017184 C36.3056141,58.5024787 36.8553217,58.0907718 37.48,58.09 L37.48,58.1 Z" id="Shape"></path>
            <path d="M42.08,57.08 C40.7324252,57.08 39.64,58.1724252 39.64,59.52 C39.64,60.8675748 40.7324252,61.96 42.08,61.96 C43.4275748,61.96 44.52,60.8675748 44.52,59.52 C44.52,58.1724252 43.4275748,57.08 42.08,57.08 Z M42.08,60.93 C41.5097082,60.93 40.9955711,60.5864645 40.7773299,60.0595836 C40.5590886,59.5327028 40.6797223,58.9262366 41.0829794,58.5229794 C41.4862366,58.1197223 42.0927028,57.9990886 42.6195836,58.2173299 C43.1464645,58.4355711 43.49,58.9497082 43.49,59.52 C43.4845047,60.2948134 42.8548329,60.9200195 42.08,60.92 L42.08,60.93 Z" id="Shape"></path>
            <path d="M33.52,59.82 L33,59.28 L32.18,60.1 L30.7,58.63 C30.5863476,58.505903 30.5678475,58.3218361 30.6545309,58.1776038 C30.7412142,58.0333716 30.9124351,57.9633267 31.0753543,58.0054488 C31.2382735,58.0475709 31.3540876,58.1918275 31.36,58.36 L31.36,58.55 L32.13,58.55 L32.13,58.36 C32.1094888,57.8524241 31.7583796,57.4184366 31.2662745,57.2923947 C30.7741694,57.1663527 30.2576643,57.3781198 29.9956766,57.8133398 C29.7336889,58.2485598 29.7882921,58.8041147 30.13,59.18 L30.24,59.29 L30,59.53 C29.5594946,60.0667284 29.5979675,60.8500729 30.0889473,61.3410527 C30.5799271,61.8320325 31.3632716,61.8705054 31.9,61.43 L32.14,61.19 L33,62 L33.54,61.46 L32.72,60.64 L33.52,59.82 Z M31.37,60.88 C31.1420301,61.0971142 30.7824863,61.0927302 30.5598781,60.8701219 C30.3372698,60.6475137 30.3328858,60.2879699 30.55,60.06 L30.79,59.82 L31.61,60.64 L31.37,60.88 Z" id="Shape"></path>
            <path d="M17,59 C16.29,58.82 15.92,58.73 15.92,58.42 C15.92,58.11 16.15,57.97 16.64,57.97 C17.0602191,58.0043492 17.4638732,58.1492507 17.81,58.39 L18.38,57.6 C17.8850169,57.2331844 17.2860759,57.0335373 16.67,57.03 C15.57,57.03 14.9,57.69 14.9,58.45 C14.9,59.45 15.9,59.75 16.67,59.92 C17.14,60.02 17.67,60.16 17.67,60.51 C17.67,60.86 17.43,60.92 16.88,60.92 C16.3226649,60.8829174 15.7925834,60.6652681 15.37,60.3 L14.68,61.08 C15.2956749,61.6020921 16.0728939,61.8953156 16.88,61.91 C18.53,61.91 18.78,60.91 18.78,60.59 C18.7,59.64 17.92,59.28 17,59 Z" id="Shape"></path>
            <rect id="Rectangle-path" x="45.03" y="60.79" width="1.03" height="1.03"></rect>
            <polygon id="Shape" points="9.14 58.23 9.14 57.2 7.09 57.2 7.09 58.23 7.6 58.23 7.6 60.79 7.09 60.79 7.09 61.82 9.14 61.82 9.14 60.79 8.63 60.79 8.63 58.23"></polygon>
            <polygon id="Shape" points="27.57 58.23 27.57 57.2 25.53 57.2 25.53 58.23 26.03 58.23 26.03 60.79 25.53 60.79 25.53 61.82 27.57 61.82 27.57 60.79 27.06 60.79 27.06 58.23"></polygon>
            <polygon id="Shape" points="13.84 57.2 10.16 57.2 10.16 58.23 11.49 58.23 11.49 61.82 12.52 61.82 12.52 58.23 13.84 58.23"></polygon>
            <polygon id="Shape" points="74.39 60.61 73.6 57.06 72.99 57.06 72.19 60.63 71.41 57.12 71.4 57.06 70.86 57.06 71.89 61.43 71.9 61.49 72.47 61.49 73.28 57.9 74.07 61.49 74.66 61.49 75.73 57.06 75.22 57.06"></polygon>
            <path d="M77.85,57 C76.52,57 76.52,58.17 76.52,59.3 C76.52,60.43 76.52,61.6 77.85,61.6 C79.18,61.6 79.18,60.43 79.18,59.3 C79.18,58.17 79.17,57 77.85,57 Z M77.85,61.13 C77.07,61.13 77.03,60.5 77.03,59.3 C77.03,58.1 77.03,57.47 77.85,57.47 C78.67,57.47 78.67,58.1 78.67,59.3 C78.67,60.5 78.63,61.11 77.85,61.11 L77.85,61.13 Z" id="Shape"></path>
            <path d="M82.48,61.22 C82.4749969,61.1200626 82.4749969,61.0199374 82.48,60.92 C82.48,59.62 82.48,59.33 82.03,59.18 C82.43,59.01 82.51,58.67 82.51,58.18 C82.51,57.35 82.25,57.08 81.44,57.08 L80.2,57.08 L80.2,61.5 L80.71,61.5 L80.71,59.41 L81.34,59.41 C81.5056782,59.3987633 81.6686042,59.4566926 81.79,59.57 C81.9292346,59.771429 81.9897237,60.0169436 81.96,60.26 C81.96,60.26 81.96,60.32 81.96,60.34 C81.9493837,60.7071464 81.9627455,61.0745943 82,61.44 L82,61.49 L82.48,61.49 L82.48,61.42 C82.5,61.35 82.49,61.29 82.48,61.22 Z M81.24,59 L80.71,59 L80.71,57.53 L81.4,57.53 C81.81,57.53 81.99,57.62 81.99,58.16 C81.99,58.7 81.75,59 81.24,59 Z" id="Shape"></path>
            <polygon id="Shape" points="84.17 57.06 83.66 57.06 83.66 61.49 85.54 61.49 85.54 61.03 84.17 61.03"></polygon>
            <path d="M87.73,57.06 L86.56,57.06 L86.56,61.48 L87.56,61.48 C88.56,61.48 89.09,61.14 89.09,59.29 C89.11,57.95 89,57.06 87.73,57.06 Z M87.45,61.06 L87.07,61.06 L87.07,57.56 L87.49,57.56 C88.49,57.56 88.61,57.88 88.61,59.07 C88.6,60.82 88.48,61 87.45,61 L87.45,61.06 Z" id="Shape"></path>
            <rect id="Rectangle-path" x="92.23" y="57.06" width="1" height="4.42"></rect>
            <polygon id="Shape" points="96.12 60.6 94.55 57.11 94.53 57.06 93.86 57.06 93.86 61.49 94.36 61.49 94.36 57.91 95.94 61.45 95.96 61.49 96.63 61.49 96.63 57.06 96.12 57.06"></polygon>
            <polygon id="Shape" points="100.05 60.6 98.47 57.11 98.46 57.06 97.78 57.06 97.78 61.49 98.29 61.49 98.29 57.91 99.86 61.45 99.88 61.49 100.55 61.49 100.55 57.06 100.05 57.06"></polygon>
            <path d="M102.92,57 C101.59,57 101.59,58.17 101.59,59.3 C101.59,60.43 101.59,61.6 102.92,61.6 C104.25,61.6 104.25,60.43 104.25,59.3 C104.25,58.17 104.25,57 102.92,57 Z M102.92,61.13 C102.14,61.13 102.1,60.5 102.1,59.3 C102.1,58.1 102.1,57.47 102.92,57.47 C103.74,57.47 103.74,58.1 103.74,59.3 C103.74,60.5 103.7,61.11 102.92,61.11 L102.92,61.13 Z" id="Shape"></path>
            <polygon id="Shape" points="106.47 60.72 105.54 57.12 105.53 57.06 104.99 57.06 106.17 61.44 106.19 61.49 106.75 61.49 107.92 57.15 107.94 57.06 107.44 57.06"></polygon>
            <path d="M109.84,57.06 L109.3,57.06 L107.94,61.48 L108.45,61.48 L108.78,60.35 L110.31,60.35 L110.64,61.48 L111.17,61.48 L109.84,57.11 L109.84,57.06 Z M108.94,59.9 L109.56,57.78 L110.18,59.9 L108.94,59.9 Z" id="Shape"></path>
            <polygon id="Shape" points="111.31 57.53 112.32 57.53 112.32 61.49 112.83 61.49 112.83 57.53 113.84 57.53 113.84 57.06 111.31 57.06"></polygon>
            <rect id="Rectangle-path" x="114.91" y="57.06" width="1" height="4.42"></rect>
            <path d="M117.86,57 C116.53,57 116.53,58.17 116.53,59.3 C116.53,60.43 116.53,61.6 117.86,61.6 C119.19,61.6 119.19,60.43 119.19,59.3 C119.19,58.17 119.19,57 117.86,57 Z M117.86,61.13 C117.08,61.13 117.04,60.5 117.04,59.3 C117.04,58.1 117.04,57.47 117.86,57.47 C118.68,57.47 118.68,58.1 118.68,59.3 C118.68,60.5 118.64,61.11 117.86,61.11 L117.86,61.13 Z" id="Shape"></path>
            <polygon id="Shape" points="122.5 60.6 120.93 57.11 120.91 57.06 120.23 57.06 120.23 61.49 120.74 61.49 120.74 57.91 122.32 61.45 122.34 61.49 123.01 61.49 123.01 57.06 122.5 57.06"></polygon>
            <polygon id="Shape" points="126.63 57.06 126.12 57.06 126.12 61.49 128 61.49 128 61.03 126.63 61.03"></polygon>
            <path d="M130.57,57.06 L130,57.06 L128.64,61.48 L129.15,61.48 L129.48,60.35 L131,60.35 L131.34,61.48 L131.87,61.48 L130.54,57.11 L130.57,57.06 Z M129.67,59.9 L130.29,57.78 L130.91,59.9 L129.67,59.9 Z" id="Shape"></path>
            <path d="M134.44,59.18 C134.87,58.97 134.91,58.57 134.91,58.18 C134.91,57.42 134.58,57.08 133.85,57.08 L132.62,57.08 L132.62,61.5 L133.87,61.5 C134.6,61.5 134.99,61.05 134.99,60.24 C135.060926,59.8039689 134.837342,59.373062 134.44,59.18 Z M133.13,57.53 L133.79,57.53 C134.08,57.53 134.4,57.53 134.4,58.18 C134.4,58.83 134.19,58.97 133.77,58.97 L133.13,58.97 L133.13,57.53 Z M133.65,61.03 L133.13,61.03 L133.13,59.43 L133.81,59.43 C134.26,59.43 134.48,59.71 134.48,60.25 C134.48,60.79 134.27,61 133.66,61 L133.65,61.03 Z" id="Shape"></path>
            <polygon id="Shape" points="114.32 47.86 114.32 34.05 110.18 34.05 110.18 51.25 123.27 51.25 123.27 47.86"></polygon>
            <rect id="Rectangle-path" x="100.91" y="38.85" width="4.13" height="12.4"></rect>
            <polygon id="Shape" points="92.17 42.65 90.24 34.05 86.41 34.05 84.48 42.65 82.55 34.05 78.72 34.05 82.57 51.18 86.39 51.18 88.33 42.58 90.26 51.18 94.09 51.18 97.93 34.05 94.1 34.05"></polygon>
            <circle id="Oval" cx="102.93" cy="1.96" r="1.53"></circle>
            <circle id="Oval" cx="102.93" cy="21.01" r="1.53"></circle>
            <circle id="Oval" cx="133.47" cy="24.14" r="1.53"></circle>
            <circle id="Oval" cx="115.35" cy="30.03" r="1.53"></circle>
            <circle id="Oval" cx="72.4" cy="24.14" r="1.53"></circle>
            <circle id="Oval" cx="90.51" cy="30.03" r="1.53"></circle>
            <path d="M104.91,34.07 C104.91,35.1745695 104.014569,36.07 102.91,36.07 C101.805431,36.07 100.91,35.1745695 100.91,34.07 C100.91,32.9654305 101.805431,32.07 102.91,32.07 C104.014569,32.07 104.91,32.9654305 104.91,34.07" id="Shape"></path>
            <path d="M104.91,34.07 C104.91,35.1745695 104.014569,36.07 102.91,36.07 C101.805431,36.07 100.91,35.1745695 100.91,34.07 C100.91,32.9654305 101.805431,32.07 102.91,32.07 C104.014569,32.07 104.91,32.9654305 104.91,34.07" id="Shape"></path>
            <circle id="Oval" cx="90.15" cy="16.48" r="1.53"></circle>
            <circle id="Oval" cx="98.61" cy="28.12" r="1.53"></circle>
            <circle id="Oval" cx="115.71" cy="16.48" r="1.53"></circle>
            <circle id="Oval" cx="107.25" cy="28.12" r="1.53"></circle>
        </g>
    </g>
</svg>