<svg width="60" height="60" xmlns="http://www.w3.org/2000/svg">
    <g fill="#FFF" fill-rule="evenodd">
        <path d="M57.8 14.63H22.85v3.03L22.68 23h.35c2.7-5.99 7.51-7.68 10.97-7.68h1.47v33.14c0 4.76-2.82 6.27-4.52 6.5v.01H49.6c-1.87-.24-4.39-1.75-4.39-6.51V15.32h1.47c3.46 0 8.26 1.68 10.96 7.68H58l-.18-5.35v-3.02h-.02z"/>
        <path d="M28.89 34.42c0-5.81-3.17-9.89-10.91-12.78-5.27-1.98-8.44-4.3-8.44-8.95 0-4.42 3.63-7.1 7.73-7.1 5.22 0 8.03 3.78 9.73 8.43h.36l-.12-4.07V5.93C24.72 5.58 21.5 5 17.4 5 8.3 5 2.89 8.97 2 15.04v3.76c.8 5.73 5.23 8.21 10.06 10.2 5.68 2.33 8.74 4.78 8.74 9.6 0 5.12-3.16 7.62-8.1 7.62-5.8 0-8.96-5-10.48-8.54H2v8.1c2.64.56 6.52 1.08 10.88 1.08 8.14-.01 16-3.78 16-12.44"/>
    </g>
</svg>
